# xmcd CD database file
#
# Track frame offsets:
#	182
#	9500
#	18230
#	34370
#	47300
#	69195
#	83805
#	105880
#	123995
#	137597
#	150667
#	167507
#	182755
#	208532
#	220267
#	234615
#	248852
#	270647
#	284615
#	299115
#	318317
#
# Disc length: 4498 seconds
#
# Revision: 18
# Processed by: cddbd v1.5.2PL0 Copyright (c) Steve Scherf et al.
# Submitted via: CDex 1.51
#
DISCID=23119015
DTITLE=Police, The - Message In A Box - The Complete Recordings [CD1]
DYEAR=1993
DGENRE=Rock
TTITLE0=Fall Out
TTITLE1=Nothing Achieving
TTITLE2=Dead End Job
TTITLE3=Next To You
TTITLE4=So Lonely
TTITLE5=Roxanne
TTITLE6=Hole In My Life
TTITLE7=Peanuts
TTITLE8=Can't Stand Losing You
TTITLE9=Truth Hits Everybody
TTITLE10=Born In The 50's
TTITLE11=Be My Girl-Sally
TTITLE12=Masoko Tanga
TTITLE13=Landlord (Live)
TTITLE14=Next To You (Live)
TTITLE15=Landlord
TTITLE16=Message In A Bottle
TTITLE17=Reggatta De Blanc
TTITLE18=It's Alright For You
TTITLE19=Bring On The Night
TTITLE20=Deathwish
EXTD=\n YEAR: 1993
EXTT0=
EXTT1=
EXTT2=
EXTT3=
EXTT4=
EXTT5=
EXTT6=
EXTT7=
EXTT8=
EXTT9=
EXTT10=
EXTT11=
EXTT12=
EXTT13=
EXTT14=
EXTT15=
EXTT16=
EXTT17=
EXTT18=
EXTT19=
EXTT20=
PLAYORDER=
